<svg xmlns:xlink="http://www.w3.org/1999/xlink" xmlns="http://www.w3.org/2000/svg" class="ft-icon ft-youtube" width="24"  height="24" ><defs><symbol fill="none" viewBox="0 0 24 24" id="icon-youtube" xmlns="http://www.w3.org/2000/svg"><path fill-rule="evenodd" clip-rule="evenodd" d="M19.815 5.418c.861.23 1.538.907 1.768 1.768h-.001C22 8.746 22 12 22 12s0 3.255-.418 4.814a2.505 2.505 0 0 1-1.768 1.768c-1.56.419-7.814.419-7.814.419s-6.255 0-7.814-.419a2.505 2.505 0 0 1-1.768-1.768C2 15.255 2 12 2 12s0-3.255.418-4.814a2.505 2.505 0 0 1 1.768-1.768C5.746 5 12 5 12 5s6.255 0 7.815.418ZM15.197 12 10 15V9l5.197 3Z" fill="#FFFFFF"></path></symbol></defs><use xlink:href="#icon-youtube"></use></svg>